<svg height="24" viewBox="0 0 24 24" width="24" xmlns="http://www.w3.org/2000/svg">
    <style>
        /* <![CDATA[ */
        @keyframes animate {
          from {
            opacity: 1;
          }
          20% {
            opacity: .4;
          }
          80% {
            opacity: .4;
          }
          to {
            opacity: 1;
          }
        }
        #a {
            animation: animate 1.6s infinite linear;
            animation-delay: 0s;
        }
        #b {
            animation: animate 1.6s infinite linear;
            animation-delay: .2s;
        }
        #c {
            animation: animate 1.6s infinite linear;
            animation-delay: .4s;
        }
        #d {
            animation: animate 1.6s infinite linear;
            animation-delay: .6s;
        }
        #e {
            animation: animate 1.6s infinite linear;
            animation-delay: .8s;
        }
        #f {
            animation: animate 1.6s infinite linear;
            animation-delay: 1s;
        }
        #g {
            animation: animate 1.6s infinite linear;
            animation-delay: 1.2s;
        }
        #h {
            animation: animate 1.6s infinite linear;
            animation-delay: 1.4s;
        }
        /* ]]> */
    </style>
    <title>Loading</title>
    <path id="a" d="M12,2C12.549,2 13,2.451 13,3L13,6C13,6.549 12.549,7 12,7C11.451,7 11,6.549 11,6L11,3C11,2.451 11.451,2 12,2Z"/>
    <path id="b" d="M15.536,8.464C15.148,8.076 15.148,7.438 15.536,7.05L17.656,4.929C17.844,4.741 18.098,4.636 18.363,4.636C18.912,4.636 19.364,5.087 19.364,5.636C19.364,5.901 19.258,6.156 19.071,6.343L16.95,8.464C16.585,8.829 15.999,8.85 15.536,8.464Z"/>
    <path id="c" d="M22,12C22,12.549 21.549,13 21,13L18,13C17.451,13 17,12.549 17,12C17,11.451 17.451,11 18,11L21,11C21.549,11 22,11.451 22,12Z"/>
    <path id="d" d="M19.071,19.071C18.683,19.459 18.045,19.459 17.657,19.071L15.536,16.95C15.356,16.764 15.255,16.514 15.255,16.255C15.255,15.707 15.707,15.255 16.255,15.255C16.514,15.255 16.764,15.356 16.95,15.536L19.071,17.656C19.259,17.843 19.364,18.098 19.364,18.363C19.364,18.601 19.28,18.83 19.071,19.071Z"/>
    <path id="e" d="M12,17C12.549,17 13,17.451 13,18L13,21C13,21.549 12.549,22 12,22C11.451,22 11,21.549 11,21L11,18C11,17.451 11.451,17 12,17Z"/>
    <path id="f" d="M4.93,19.071C4.542,18.683 4.542,18.045 4.93,17.657L7.051,15.536C7.239,15.341 7.499,15.231 7.77,15.231C8.319,15.231 8.77,15.682 8.77,16.231C8.77,16.502 8.66,16.762 8.465,16.95L6.345,19.071C6.158,19.259 5.903,19.364 5.637,19.364C5.4,19.364 5.171,19.28 4.93,19.071Z"/>
    <path id="g" d="M7,12C7,12.549 6.549,13 6,13L3,13C2.451,13 2,12.549 2,12C2,11.451 2.451,11 3,11L6,11C6.549,11 7,11.451 7,12Z"/>
    <path id="h" d="M8.464,8.464C8.076,8.852 7.438,8.852 7.05,8.464L4.93,6.344C4.742,6.156 4.637,5.902 4.637,5.637C4.637,5.088 5.088,4.636 5.637,4.636C5.902,4.636 6.157,4.742 6.344,4.929L8.464,7.05C8.852,7.438 8.852,8.076 8.464,8.464Z"/>
</svg>
