<svg height="24" viewBox="0 0 24 24" width="24" xmlns="http://www.w3.org/2000/svg">
    <style>
        /* <![CDATA[ */
        @keyframes animate {
          from {
            opacity: 1;
          }
          50% {
            opacity: .4;
          }
          to {
            opacity: 1;
          }
        }
        #a {
            animation: animate 1.2s infinite linear;
            animation-delay: 0s;
        }
        #b {
            animation: animate 1.2s infinite linear;
            animation-delay: .2s;
        }
        #c {
            animation: animate 1.2s infinite linear;
            animation-delay: .4s;
        }
        #d {
            animation: animate 1.2s infinite linear;
            animation-delay: .6s;
        }
        #e {
            animation: animate 1.2s infinite linear;
            animation-delay: .8s;
        }
        #f {
            animation: animate 1.2s infinite linear;
            animation-delay: 1s;
        }
        /* ]]> */
    </style>
    <title>Loading</title>
    <path id="a" d="M12,2C12.549,2 13,2.451 13,3L13,6C13,6.549 12.549,7 12,7C11.451,7 11,6.549 11,6L11,3C11,2.451 11.451,2 12,2Z"/>
    <path id="b" d="M20.66,7C20.934,7.475 20.769,8.092 20.294,8.366L17.696,9.866C17.543,9.956 17.368,10.003 17.19,10.003C16.642,10.003 16.19,9.552 16.19,9.003C16.19,8.644 16.384,8.312 16.696,8.134L19.294,6.634C19.769,6.36 20.386,6.525 20.66,7Z"/>
    <path id="c" d="M20.66,17C20.386,17.475 19.769,17.64 19.294,17.366L16.696,15.866C16.39,15.687 16.202,15.358 16.202,15.003C16.202,14.455 16.653,14.003 17.202,14.003C17.375,14.003 17.545,14.048 17.696,14.134L20.294,15.634C20.769,15.908 20.934,16.525 20.66,17Z"/>
    <path id="d" d="M12,17C12.549,17 13,17.451 13,18L13,21C13,21.549 12.549,22 12,22C11.451,22 11,21.549 11,21L11,18C11,17.451 11.451,17 12,17Z"/>
    <path id="e" d="M7.67,14.5C7.944,14.975 7.779,15.592 7.304,15.866L4.706,17.366C4.553,17.456 4.378,17.503 4.2,17.503C3.652,17.503 3.2,17.052 3.2,16.503C3.2,16.144 3.394,15.812 3.706,15.634L6.304,14.134C6.779,13.86 7.396,14.025 7.67,14.5Z"/>
    <path id="f" d="M7.67,9.5C7.396,9.975 6.779,10.14 6.304,9.866L3.706,8.366C3.394,8.188 3.2,7.856 3.2,7.497C3.2,6.948 3.652,6.497 4.2,6.497C4.378,6.497 4.553,6.544 4.706,6.634L7.304,8.134C7.779,8.408 7.944,9.025 7.67,9.5Z"/>
</svg>
