<svg height="24" viewBox="0 0 24 24" width="24" xmlns="http://www.w3.org/2000/svg">
    <title>Paste</title>
    <path d="M21.389,23L11.611,23C11.276,23 11,22.729 11,22.4L11,11.6C11,11.271 11.276,11 11.611,11L21.389,11C21.724,11 22,11.271 22,11.6L22,22.4C22,22.729 21.724,23 21.389,23ZM17,4L20.007,4C20.555,4 21,4.445 21,4.993L21,9.778L19,9.778L19,6L17,6L17,8L7,8L7,6L5,6L5,20L10,20L10,22L3.993,22C3.448,21.999 3.001,21.552 3,21.007L3,4.993C3,4.445 3.445,4 3.993,4L7,4L7,2L17,2L17,4ZM17,18L14,18L14,20L17,20L17,18ZM19,14L14,14L14,16L19,16L19,14ZM15,4L9,4L9,6L15,6L15,4Z"/>
</svg>
