<svg height="24" viewBox="0 0 24 24" width="24" xmlns="http://www.w3.org/2000/svg">
    <title>Notifications Off</title>
    <path d="M18,10C18,6.708 15.292,4 12,4C8.708,4 6,6.708 6,10L6,18L18,18L18,10ZM20,18.667L20.4,19.2C20.465,19.287 20.5,19.392 20.5,19.5C20.5,19.774 20.274,20 20,20L4,20C3.726,20 3.5,19.774 3.5,19.5C3.5,19.392 3.535,19.287 3.6,19.2L4,18.667L4,10C4,5.611 7.611,2 12,2C16.389,2 20,5.611 20,10L20,18.667ZM9.5,21L14.5,21C14.5,22.371 13.371,23.5 12,23.5C10.629,23.5 9.5,22.371 9.5,21Z" style="fill-rule:nonzero;"/>
    <circle cx="22" cy="2" r="2"/>
</svg>
