<svg height="24" viewBox="0 0 24 24" width="24" xmlns="http://www.w3.org/2000/svg">
    <title>HTML</title>
    <path d="M21,8L21,20.993C21,20.995 21,20.998 21,21C21,21.546 20.553,21.996 20.007,22L3.993,22C3.449,22 3.001,21.552 3,21.008L3,2.992C3,2.455 3.449,2 4.002,2L14.997,2L21,8ZM19,9L14,9L14,4L5,4L5,20L19,20L19,9Z"/>
    <path d="M7.21,16.732L8.314,16.732L8.314,15.664L8.938,15.664L8.938,18.463L8.314,18.463L8.314,17.219L7.21,17.219L7.21,18.463L6.586,18.463L6.586,15.664L7.21,15.664L7.21,16.732ZM11.51,15.664L11.51,16.151L10.706,16.151L10.706,18.463L10.082,18.463L10.082,16.151L9.278,16.151L9.278,15.664L11.51,15.664ZM13.326,16.976L14.126,15.664L14.806,15.664L14.806,18.463L14.202,18.463L14.202,16.576L13.594,17.592L13.062,17.592L12.454,16.576L12.454,18.463L11.85,18.463L11.85,15.664L12.53,15.664L13.326,16.976ZM16.03,15.664L16.03,17.976L17.414,17.976L17.414,18.463L15.406,18.463L15.406,15.664L16.03,15.664Z"/>
</svg>
