<svg height="24" viewBox="0 0 24 24" width="24" xmlns="http://www.w3.org/2000/svg">
    <title>Markdown</title>
    <path d="M21,8L21,20.993C21,20.995 21,20.998 21,21C21,21.546 20.553,21.996 20.007,22L3.993,22C3.449,22 3.001,21.552 3,21.008L3,2.992C3,2.455 3.449,2 4.002,2L14.997,2L21,8ZM19,9L14,9L14,4L5,4L5,20L19,20L19,9Z"/>
    <path d="M10.46,16.976L11.26,15.664L11.94,15.664L11.94,18.463L11.336,18.463L11.336,16.576L10.728,17.592L10.196,17.592L9.588,16.576L9.588,18.463L8.984,18.463L8.984,15.664L9.664,15.664L10.46,16.976ZM13.396,15.664C14.28,15.664 14.912,16.135 14.916,17.064C14.912,17.996 14.28,18.463 13.396,18.463L12.54,18.463L12.54,15.664L13.396,15.664ZM13.352,17.976C13.952,17.976 14.284,17.724 14.284,17.068C14.284,16.404 13.952,16.151 13.352,16.151L13.164,16.151L13.164,17.976L13.352,17.976Z"/>
</svg>
