<svg height="24" viewBox="0 0 24 24" width="24" xmlns="http://www.w3.org/2000/svg">
    <title>PDF</title>
    <path d="M21,8L21,20.993C21,20.995 21,20.998 21,21C21,21.546 20.553,21.996 20.007,22L3.993,22C3.449,22 3.001,21.552 3,21.008L3,2.992C3,2.455 3.449,2 4.002,2L14.997,2L21,8ZM19,9L14,9L14,4L5,4L5,20L19,20L19,9Z"/>
    <path d="M9.33,15.664C10.026,15.664 10.454,15.976 10.454,16.58C10.454,17.184 10.026,17.499 9.33,17.499L8.986,17.499L8.986,18.463L8.362,18.463L8.362,15.664L9.33,15.664ZM15.61,15.664L15.61,16.151L14.334,16.151L14.334,16.784L15.518,16.784L15.518,17.271L14.334,17.271L14.334,18.463L13.71,18.463L13.71,15.664L15.61,15.664ZM11.73,15.664C12.614,15.664 13.246,16.135 13.25,17.064C13.246,17.996 12.614,18.463 11.73,18.463L10.874,18.463L10.874,15.664L11.73,15.664ZM11.686,17.976C12.286,17.976 12.618,17.724 12.618,17.068C12.618,16.404 12.286,16.151 11.686,16.151L11.498,16.151L11.498,17.976L11.686,17.976ZM9.274,17.028C9.65,17.028 9.822,16.9 9.822,16.58C9.822,16.26 9.65,16.135 9.274,16.135L8.986,16.135L8.986,17.028L9.274,17.028Z"/>
</svg>
