<svg height="24" viewBox="0 0 24 24" width="24" xmlns="http://www.w3.org/2000/svg">
    <title>Linux</title>
    <path d="M20.581,19.049c-0.55,-0.446 -0.336,-1.431 -0.907,-1.917c0.553,-3.365 -0.997,-6.331 -2.845,-8.232c-1.551,-1.595 -1.051,-3.147 -1.051,-4.49c0,-2.146 -0.881,-4.41 -3.55,-4.41c-2.853,0 -3.635,2.38 -3.663,3.738c-0.068,3.262 0.659,4.11 -1.25,6.484c-2.246,2.793 -2.577,5.579 -2.07,7.057c-0.237,0.276 -0.557,0.582 -1.155,0.835c-1.652,0.72 -0.441,1.925 -0.898,2.78c-0.13,0.243 -0.192,0.497 -0.192,0.74c0,0.75 0.596,1.399 1.679,1.302c1.461,-0.13 2.809,0.905 3.681,0.905c0.77,0 1.402,-0.438 1.696,-1.041c1.377,-0.339 3.077,-0.296 4.453,0.059c0.247,0.691 0.917,1.141 1.662,1.141c1.631,0 1.945,-1.849 3.816,-2.475c0.674,-0.225 1.013,-0.879 1.013,-1.488c0,-0.39 -0.139,-0.761 -0.419,-0.988Zm-9.147,-10.465c-0.319,0 -0.583,-0.258 -1,-0.568c-0.528,-0.392 -1.065,-0.618 -1.059,-1.03c0,-0.283 0.379,-0.37 0.869,-0.681c0.526,-0.333 0.731,-0.671 1.249,-0.671c0.53,0 0.69,0.268 1.41,0.579c0.708,0.307 1.201,0.427 1.201,0.773c0,0.355 -0.741,0.609 -1.158,0.868c-0.613,0.378 -0.928,0.73 -1.512,0.73Zm1.665,-5.215c0.882,0.141 0.981,1.691 0.559,2.454l-0.355,-0.145c0.184,-0.543 0.181,-1.437 -0.435,-1.494c-0.391,-0.036 -0.643,0.48 -0.697,0.922c-0.153,-0.064 -0.32,-0.11 -0.523,-0.127c0.062,-0.923 0.658,-1.737 1.451,-1.61Zm-3.403,0.331c0.676,-0.168 1.075,0.618 1.078,1.435l-0.31,0.19c-0.042,-0.343 -0.195,-0.897 -0.579,-0.779c-0.411,0.128 -0.344,1.083 -0.115,1.279l-0.306,0.17c-0.42,-0.707 -0.419,-2.133 0.232,-2.295Zm-2.115,19.243c-1.963,-0.893 -2.63,-0.69 -3.005,-0.69c-0.777,0 -1.031,-0.579 -0.739,-1.127c0.248,-0.465 0.171,-0.952 0.11,-1.343c-0.094,-0.599 -0.111,-0.794 0.478,-1.052c0.815,-0.346 1.177,-0.791 1.447,-1.124c0.758,-0.937 1.523,0.537 2.15,1.85c0.407,0.851 1.208,1.282 1.455,2.225c0.227,0.871 -0.71,1.801 -1.896,1.261Zm6.987,-1.874c-1.384,0.673 -3.147,0.982 -4.466,0.299c-0.195,-0.563 -0.507,-0.927 -0.843,-1.293c0.539,-0.142 0.939,-0.814 0.46,-1.489c-0.511,-0.721 -1.555,-1.224 -2.61,-2.04c-0.987,-0.763 -1.299,-2.644 0.045,-4.746c-0.655,1.862 -0.272,3.578 0.057,4.069c0.068,-0.988 0.146,-2.638 1.496,-4.615c0.681,-0.998 0.691,-2.316 0.706,-3.14l0.62,0.424c0.456,0.337 0.838,0.708 1.386,0.708c0.81,0 1.258,-0.466 1.882,-0.853c0.244,-0.15 0.613,-0.302 0.923,-0.513c0.52,2.476 2.674,5.454 2.795,7.15c0.501,-1.032 -0.142,-3.514 -0.142,-3.514c0.842,1.285 0.909,2.356 0.946,3.67c0.589,0.241 1.221,0.869 1.279,1.696l-0.245,-0.028c-0.126,-0.919 -2.607,-2.269 -2.83,-0.539c-1.19,0.181 -0.757,2.066 -0.997,3.288c-0.11,0.559 -0.314,1.001 -0.462,1.466Zm4.846,-0.041c-0.985,0.38 -1.65,1.187 -2.107,1.688c-0.88,0.966 -2.044,0.503 -2.168,-0.401c-0.131,-0.966 0.36,-1.493 0.572,-2.574c0.193,-0.987 -0.023,-2.506 0.431,-2.668c0.295,1.753 2.066,1.016 2.47,0.538c0.657,0 0.712,0.222 0.859,0.837c0.092,0.385 0.219,0.709 0.578,1.09c0.418,0.447 0.29,1.133 -0.635,1.49Zm-8,-13.006c-0.651,0 -1.138,-0.433 -1.534,-0.769c-0.203,-0.171 0.05,-0.487 0.253,-0.315c0.387,0.328 0.777,0.675 1.281,0.675c0.607,0 1.142,-0.519 1.867,-0.805c0.247,-0.097 0.388,0.285 0.143,0.382c-0.704,0.277 -1.269,0.832 -2.01,0.832Z"/>
</svg>
