<?xml version="1.0" encoding="utf-8"?>
<svg focusable="false" height="100%" shape-rendering="geometricPrecision" version="1.1" viewBox="0 0 880 150" width="100%" xmlns="http://www.w3.org/2000/svg" style="fill-rule:evenodd;">
	<title>Nirvarnia Icons</title>
    <desc>Beautiful SVG icons for application interfaces</desc>
    <rect id="background" x="0" y="0" width="880" height="150" style="fill:#f8d13b;"/>
    <path id="title" d="M152.572,73.458c-3.159,0 -6.18,-0.61 -8.704,-1.925l0.315,-5.637c2.299,1.646 4.959,2.539 7.757,2.539c2.484,0 3.659,-0.799 3.659,-2.445c0,-1.41 -0.994,-2.21 -4.653,-3.338c-4.824,-1.458 -6.988,-4.044 -6.988,-7.476c0,-4.651 3.426,-7.186 9.563,-7.186c2.799,0 5.504,0.61 7.758,1.596l-0.496,5.167c-1.893,-1.082 -4.283,-1.74 -6.63,-1.74c-2.439,0 -3.388,0.752 -3.388,1.881c0,1.363 0.949,2.257 4.427,3.338c5.501,1.74 7.214,4.279 7.214,7.476c0,4.98 -3.291,7.75 -9.834,7.75Zm-78.988,-12.734c0,4.843 2.752,7.711 7.219,7.711c2.346,0 4.377,-0.517 5.911,-1.646l0.451,5.167c-1.895,1.033 -4.422,1.502 -6.949,1.502c-8.39,0 -13.44,-4.835 -13.44,-12.734c0,-7.852 5.095,-12.734 13.125,-12.734c2.481,0 5.053,0.469 7.083,1.455l-0.496,5.167c-1.579,-1.082 -3.7,-1.599 -6.001,-1.599c-4.061,0 -6.903,2.868 -6.903,7.711Zm27.733,12.734c7.445,0 12.134,-5.305 12.134,-12.734c0,-7.382 -4.689,-12.734 -12.134,-12.734c-7.446,0 -12.135,5.352 -12.135,12.734c0,7.429 4.689,12.734 12.135,12.734Zm-39.284,-33.458l0,32.894l-7.033,0l0,-32.894l7.033,0Zm62.202,8.553l0,1.596c1.445,-1.22 3.521,-2.159 6.05,-2.159c6,0 9.516,3.896 9.516,11.462l0,13.442l-6.717,0l0,-13.348c0,-4.606 -1.535,-6.533 -4.605,-6.533c-1.716,0 -3.296,0.752 -4.244,1.833l0,18.048l-6.717,0l0,-24.341l6.717,0Zm-22.918,19.882c-3.296,0 -5.327,-2.774 -5.327,-7.711c0,-4.937 2.031,-7.711 5.327,-7.711c3.295,0 5.327,2.774 5.327,7.711c0,4.937 -2.032,7.711 -5.327,7.711Z" style="fill:#fff;"/>
    <path id="tagline" d="M343.093,92.939l0,0.958c0.84,-0.767 2.089,-1.246 3.481,-1.246c3.242,0 5.783,2.469 5.783,6.503c0,4.033 -2.541,6.502 -5.783,6.502c-1.392,0 -2.641,-0.479 -3.481,-1.246l0,5.59l-2.013,0l0,-17.061l2.013,0Zm-13.92,0l0,0.958c0.84,-0.767 2.089,-1.246 3.481,-1.246c3.242,0 5.783,2.469 5.783,6.503c0,4.033 -2.541,6.502 -5.783,6.502c-1.392,0 -2.641,-0.479 -3.481,-1.246l0,5.59l-2.013,0l0,-17.061l2.013,0Zm-68.327,12.717c-1.537,0 -3.023,-0.407 -4.126,-1.078l0.168,-2.015c1.03,0.816 2.397,1.32 3.958,1.32c1.945,0 2.834,-0.648 2.834,-1.848c0,-1.009 -0.576,-1.633 -2.786,-2.209c-2.736,-0.696 -4.078,-1.873 -4.078,-3.745c0,-2.208 1.869,-3.43 4.679,-3.43c1.248,0 2.592,0.216 3.599,0.671l-0.192,1.918c-0.91,-0.552 -2.135,-0.816 -3.359,-0.816c-1.801,0 -2.666,0.6 -2.666,1.513c0,0.96 0.768,1.632 2.906,2.184c2.808,0.721 3.958,1.921 3.958,3.77c0,2.423 -1.869,3.765 -4.895,3.765Zm280.416,0c-1.537,0 -3.023,-0.407 -4.126,-1.078l0.168,-2.015c1.03,0.816 2.397,1.32 3.958,1.32c1.945,0 2.834,-0.648 2.834,-1.848c0,-1.009 -0.576,-1.633 -2.786,-2.209c-2.736,-0.696 -4.078,-1.873 -4.078,-3.745c0,-2.208 1.869,-3.43 4.679,-3.43c1.248,0 2.592,0.216 3.599,0.671l-0.192,1.918c-0.91,-0.552 -2.135,-0.816 -3.359,-0.816c-1.801,0 -2.666,0.6 -2.666,1.513c0,0.96 0.768,1.632 2.906,2.184c2.808,0.721 3.958,1.921 3.958,3.77c0,2.423 -1.869,3.765 -4.895,3.765Zm-33.67,-8.061l0,-0.865c0,-1.705 -0.96,-2.306 -3.193,-2.306c-1.345,0 -2.93,0.361 -4.081,0.985l-0.216,-1.799c1.175,-0.575 2.784,-0.959 4.345,-0.959c3.313,0 5.158,1.174 5.158,4.584l0,8.133l-2.013,0l0,-0.958c-0.864,0.815 -2.209,1.246 -3.77,1.246c-2.737,0 -4.798,-1.342 -4.798,-3.936c0,-2.52 1.965,-4.125 5.447,-4.125l3.121,0Zm-320.256,-0.625c0,-4.945 3.429,-8.687 8.855,-8.687c1.873,0 3.6,0.312 4.967,0.863l-0.192,2.111c-1.294,-0.673 -2.878,-1.057 -4.655,-1.057c-4.153,0 -6.818,2.834 -6.818,6.77c0,4.032 2.569,6.769 7.106,6.769c1.105,0 2.113,-0.168 2.809,-0.432l0,-5.307l-4.633,0l0,-1.869l6.742,0l0,8.591c-1.534,0.623 -3.141,0.934 -5.086,0.934c-5.546,0 -9.095,-3.622 -9.095,-8.686Zm347.853,2.998c0.024,-0.239 0.024,-0.503 0.024,-0.743c0,-3.864 -2.037,-6.574 -5.638,-6.574c-3.41,0 -5.615,2.59 -5.615,6.479c0,3.696 2.133,6.526 6.215,6.526c1.608,0 3.001,-0.359 4.031,-1.006l-0.215,-1.944c-1.079,0.889 -2.304,1.177 -3.768,1.177c-2.473,0 -4.01,-1.561 -4.178,-3.915l9.144,0Zm-213.285,-2.373l0,-0.865c0,-1.705 -0.96,-2.306 -3.193,-2.306c-1.345,0 -2.93,0.361 -4.081,0.985l-0.216,-1.799c1.175,-0.575 2.784,-0.959 4.345,-0.959c3.313,0 5.158,1.174 5.158,4.584l0,8.133l-2.013,0l0,-0.958c-0.864,0.815 -2.209,1.246 -3.77,1.246c-2.737,0 -4.798,-1.342 -4.798,-3.936c0,-2.52 1.965,-4.125 5.447,-4.125l3.121,0Zm-231.36,0l0,-0.865c0,-1.705 -0.96,-2.306 -3.193,-2.306c-1.345,0 -2.93,0.361 -4.081,0.985l-0.216,-1.799c1.175,-0.575 2.784,-0.959 4.345,-0.959c3.313,0 5.158,1.174 5.158,4.584l0,8.133l-2.013,0l0,-0.958c-0.864,0.815 -2.209,1.246 -3.77,1.246c-2.737,0 -4.798,-1.342 -4.798,-3.936c0,-2.52 1.965,-4.125 5.447,-4.125l3.121,0Zm295.368,0l0,-0.865c0,-1.705 -0.96,-2.306 -3.193,-2.306c-1.345,0 -2.93,0.361 -4.081,0.985l-0.216,-1.799c1.175,-0.575 2.784,-0.959 4.345,-0.959c3.313,0 5.158,1.174 5.158,4.584l0,8.133l-2.013,0l0,-0.958c-0.864,0.815 -2.209,1.246 -3.77,1.246c-2.737,0 -4.798,-1.342 -4.798,-3.936c0,-2.52 1.965,-4.125 5.447,-4.125l3.121,0Zm93.933,2.373c0.024,-0.239 0.024,-0.503 0.024,-0.743c0,-3.864 -2.037,-6.574 -5.638,-6.574c-3.41,0 -5.615,2.59 -5.615,6.479c0,3.696 2.133,6.526 6.215,6.526c1.608,0 3.001,-0.359 4.031,-1.006l-0.215,-1.944c-1.079,0.889 -2.304,1.177 -3.768,1.177c-2.473,0 -4.01,-1.561 -4.178,-3.915l9.144,0Zm-399.576,0c0.024,-0.239 0.024,-0.503 0.024,-0.743c0,-3.864 -2.037,-6.574 -5.638,-6.574c-3.41,0 -5.615,2.59 -5.615,6.479c0,3.696 2.133,6.526 6.215,6.526c1.608,0 3.001,-0.359 4.031,-1.006l-0.215,-1.944c-1.079,0.889 -2.304,1.177 -3.768,1.177c-2.473,0 -4.01,-1.561 -4.178,-3.915l9.144,0Zm313.824,-10.749l0,3.72l3.768,0l0,1.725l-3.768,0l0,5.954c0,2.737 0.672,3.265 2.28,3.265c0.36,0 0.792,-0.048 1.2,-0.144l0.24,1.773c-0.552,0.096 -1.176,0.144 -1.632,0.144c-2.663,0 -4.101,-1.318 -4.101,-4.246l0,-6.746l-2.232,0l0,-1.725l2.232,0l0,-3.72l2.013,0Zm120.096,9.935c0,2.977 1.776,4.729 4.56,4.729c1.2,0 2.424,-0.264 3.336,-0.888l0.192,1.918c-0.96,0.504 -2.256,0.743 -3.528,0.743c-3.96,0 -6.621,-2.565 -6.621,-6.502c0,-3.938 2.709,-6.503 6.453,-6.503c1.344,0 2.616,0.216 3.576,0.695l-0.192,1.918c-0.864,-0.552 -2.088,-0.84 -3.312,-0.84c-2.664,0 -4.464,1.753 -4.464,4.73Zm-416.496,-6.215l0,7.08c0,2.688 1.153,3.864 3.41,3.864c1.44,0 2.617,-0.624 3.313,-1.562l0,-9.382l2.013,0l0,12.429l-2.013,0l0,-1.006c-0.84,0.767 -2.041,1.294 -3.578,1.294c-3.169,0 -5.158,-1.917 -5.158,-5.685l0,-7.032l2.013,0Zm130.995,6.215c0,3.745 2.301,6.502 5.999,6.502c3.697,0 5.998,-2.757 5.998,-6.502c0,-3.746 -2.301,-6.503 -5.998,-6.503c-3.698,0 -5.999,2.757 -5.999,6.503Zm234.717,-9.935l0,3.72l3.768,0l0,1.725l-3.768,0l0,5.954c0,2.737 0.672,3.265 2.28,3.265c0.36,0 0.792,-0.048 1.2,-0.144l0.24,1.773c-0.552,0.096 -1.176,0.144 -1.632,0.144c-2.663,0 -4.101,-1.318 -4.101,-4.246l0,-6.746l-2.232,0l0,-1.725l2.232,0l0,-3.72l2.013,0Zm-244.368,9.935c0,-2.977 1.8,-4.73 4.464,-4.73c1.224,0 2.448,0.288 3.312,0.84l0.192,-1.918c-0.96,-0.479 -2.232,-0.695 -3.576,-0.695c-3.744,0 -6.453,2.565 -6.453,6.503c0,3.937 2.661,6.502 6.621,6.502c1.272,0 2.568,-0.239 3.528,-0.743l-0.192,-1.918c-0.912,0.624 -2.136,0.888 -3.336,0.888c-2.784,0 -4.56,-1.752 -4.56,-4.729Zm-84.288,-6.215l0,7.08c0,2.688 1.153,3.864 3.41,3.864c1.44,0 2.617,-0.624 3.313,-1.562l0,-9.382l2.013,0l0,12.429l-2.013,0l0,-1.006c-0.84,0.767 -2.041,1.294 -3.578,1.294c-3.169,0 -5.158,-1.917 -5.158,-5.685l0,-7.032l2.013,0Zm232.824,6.215c0,-2.977 1.8,-4.73 4.464,-4.73c1.224,0 2.448,0.288 3.312,0.84l0.192,-1.918c-0.96,-0.479 -2.232,-0.695 -3.576,-0.695c-3.744,0 -6.453,2.565 -6.453,6.503c0,3.937 2.661,6.502 6.621,6.502c1.272,0 2.568,-0.239 3.528,-0.743l-0.192,-1.918c-0.912,0.624 -2.136,0.888 -3.336,0.888c-2.784,0 -4.56,-1.752 -4.56,-4.729Zm-198.599,-10.128l-0.167,2.11c-1.175,-0.672 -2.64,-0.936 -3.912,-0.936c-2.425,0 -3.554,0.936 -3.554,2.377c0,1.368 1.008,2.28 3.338,3.096c3.72,1.249 5.23,2.713 5.23,5.282c0,2.976 -2.205,4.701 -6.047,4.701c-1.729,0 -3.264,-0.383 -4.582,-1.102l0.192,-2.207c1.294,0.936 2.925,1.392 4.558,1.392c2.425,0 3.722,-0.984 3.722,-2.664c0,-1.537 -0.912,-2.569 -3.65,-3.433c-3.312,-1.056 -4.918,-2.593 -4.918,-5.065c0,-2.64 2.133,-4.294 5.783,-4.294c1.296,0 2.857,0.24 4.007,0.743Zm114.362,10.128c0,3.745 2.301,6.502 5.999,6.502c3.697,0 5.998,-2.757 5.998,-6.502c0,-3.746 -2.301,-6.503 -5.998,-6.503c-3.698,0 -5.999,2.757 -5.999,6.503Zm-170.619,-9.935l0,3.72l3.768,0l0,1.725l-3.768,0l0,5.954c0,2.737 0.672,3.265 2.28,3.265c0.36,0 0.792,-0.048 1.2,-0.144l0.24,1.773c-0.552,0.096 -1.176,0.144 -1.632,0.144c-2.663,0 -4.101,-1.318 -4.101,-4.246l0,-6.746l-2.232,0l0,-1.725l2.232,0l0,-3.72l2.013,0Zm292.323,9.935c0,3.745 2.301,6.502 5.999,6.502c3.697,0 5.998,-2.757 5.998,-6.502c0,-3.746 -2.301,-6.503 -5.998,-6.503c-3.698,0 -5.999,2.757 -5.999,6.503Zm16.653,-6.215l0,1.006c0.84,-0.767 2.041,-1.294 3.578,-1.294c3.169,0 5.158,1.917 5.158,5.685l0,7.032l-2.013,0l0,-7.08c0,-2.688 -1.153,-3.864 -3.41,-3.864c-1.44,0 -2.617,0.624 -3.313,1.56l0,9.384l-2.013,0l0,-12.429l2.013,0Zm26.808,0l0,1.006c0.84,-0.767 2.041,-1.294 3.578,-1.294c3.169,0 5.158,1.917 5.158,5.685l0,7.032l-2.013,0l0,-7.08c0,-2.688 -1.153,-3.864 -3.41,-3.864c-1.44,0 -2.617,0.624 -3.313,1.56l0,9.384l-2.013,0l0,-12.429l2.013,0Zm-148.512,0l0,1.389c0.792,-1.03 2.04,-1.677 3.672,-1.677c0.48,0 1.056,0.048 1.512,0.168l-0.216,1.965c-0.408,-0.168 -1.008,-0.264 -1.512,-0.264c-1.704,0 -2.88,0.816 -3.456,2.256l0,8.592l-2.013,0l0,-12.429l2.013,0Zm-54.648,0l0,1.006c0.84,-0.767 2.041,-1.294 3.578,-1.294c3.169,0 5.158,1.917 5.158,5.685l0,7.032l-2.013,0l0,-7.08c0,-2.688 -1.153,-3.864 -3.41,-3.864c-1.44,0 -2.617,0.624 -3.313,1.56l0,9.384l-2.013,0l0,-12.429l2.013,0Zm239.064,0l0,1.389c0.792,-1.03 2.04,-1.677 3.672,-1.677c0.48,0 1.056,0.048 1.512,0.168l-0.216,1.965c-0.408,-0.168 -1.008,-0.264 -1.512,-0.264c-1.704,0 -2.88,0.816 -3.456,2.256l0,8.592l-2.013,0l0,-12.429l2.013,0Zm-305.783,9.958l5.4,-14.326l2.232,0l-6.48,16.797l-2.303,0l-6.481,-16.797l2.232,0l5.4,14.326Zm264.383,-9.961l0,12.432l-2.013,0l0,-12.432l2.013,0Zm-85.872,-5.085l0,17.517l-2.013,0l0,-17.517l2.013,0Zm-208.152,0l0,17.517l-2.013,0l0,-17.517l2.013,0Zm-28.08,5.085l0,12.432l-2.013,0l0,-12.432l2.013,0Zm281.376,0l0,12.432l-2.013,0l0,-12.432l2.013,0Zm-341.518,-4.365c3.529,0 5.542,1.893 5.542,4.439c0,1.537 -0.839,2.809 -2.133,3.432c1.895,0.719 2.949,2.207 2.949,4.104c0,3.025 -2.205,4.822 -6.022,4.822l-6.095,0l0,-16.797l5.759,0Zm153.454,4.365l0,12.432l-2.013,0l0,-12.432l2.013,0Zm148.536,0l0,12.432l-2.013,0l0,-12.432l2.013,0Zm-85.869,0.003l0,-0.72c0,-2.858 1.39,-4.368 4.125,-4.368c0.576,0 1.224,0.072 1.728,0.216l-0.216,1.773c-0.36,-0.144 -0.888,-0.216 -1.344,-0.216c-1.632,0 -2.28,0.721 -2.28,2.811l0,0.504l3.48,0l0,1.725l-3.48,0l0,10.704l-2.013,0l0,-10.704l-2.616,0l0,-1.725l2.616,0Zm-151.32,0l0,-0.72c0,-2.858 1.39,-4.368 4.125,-4.368c0.576,0 1.224,0.072 1.728,0.216l-0.216,1.773c-0.36,-0.144 -0.888,-0.216 -1.344,-0.216c-1.632,0 -2.28,0.721 -2.28,2.811l0,0.504l3.48,0l0,1.725l-3.48,0l0,10.704l-2.013,0l0,-10.704l-2.616,0l0,-1.725l2.616,0Zm367.008,0l0,-0.72c0,-2.858 1.39,-4.368 4.125,-4.368c0.576,0 1.224,0.072 1.728,0.216l-0.216,1.773c-0.36,-0.144 -0.888,-0.216 -1.344,-0.216c-1.632,0 -2.28,0.721 -2.28,2.811l0,0.504l3.48,0l0,1.725l-3.48,0l0,10.704l-2.013,0l0,-10.704l-2.616,0l0,-1.725l2.616,0Zm-405.602,10.944c-1.728,0 -2.929,-0.696 -2.929,-2.209c0,-1.441 1.08,-2.354 3.482,-2.354l3.025,0l0,3.026c-0.696,1.033 -2.041,1.537 -3.578,1.537Zm295.368,0c1.537,0 2.882,-0.504 3.578,-1.537l0,-3.026l-3.025,0c-2.402,0 -3.482,0.913 -3.482,2.354c0,1.513 1.201,2.209 2.929,2.209Zm-64.008,0c1.537,0 2.882,-0.504 3.578,-1.537l0,-3.026l-3.025,0c-2.402,0 -3.482,0.913 -3.482,2.354c0,1.513 1.201,2.209 2.929,2.209Zm185.688,0c1.537,0 2.882,-0.504 3.578,-1.537l0,-3.026l-3.025,0c-2.402,0 -3.482,0.913 -3.482,2.354c0,1.513 1.201,2.209 2.929,2.209Zm-160.921,-7.922c0.744,-0.985 1.945,-1.537 3.289,-1.537c2.257,0 3.914,1.609 3.914,4.73c0,3.121 -1.657,4.729 -3.914,4.729c-1.344,0 -2.545,-0.552 -3.289,-1.536l0,-6.386Zm-57.696,3.193c0,-2.881 1.441,-4.73 3.938,-4.73c2.496,0 3.937,1.849 3.937,4.73c0,2.881 -1.441,4.729 -3.937,4.729c-2.497,0 -3.938,-1.848 -3.938,-4.729Zm121.704,0c0,-2.881 1.441,-4.73 3.938,-4.73c2.496,0 3.937,1.849 3.937,4.73c0,2.881 -1.441,4.729 -3.937,4.729c-2.497,0 -3.938,-1.848 -3.938,-4.729Zm-176.352,0c0,-2.881 1.441,-4.73 3.938,-4.73c2.496,0 3.937,1.849 3.937,4.73c0,2.881 -1.441,4.729 -3.937,4.729c-2.497,0 -3.938,-1.848 -3.938,-4.729Zm98.424,-3.193c0.744,-0.985 1.945,-1.537 3.289,-1.537c2.257,0 3.914,1.609 3.914,4.73c0,3.121 -1.657,4.729 -3.914,4.729c-1.344,0 -2.545,-0.552 -3.289,-1.536l0,-6.386Zm-268.391,7.538c2.881,0 4.226,-1.056 4.226,-2.953c0,-1.873 -1.345,-2.954 -4.226,-2.954l-3.673,0l0,5.907l3.673,0Zm472.346,-5.256c-0.144,-2.33 -1.441,-3.819 -3.553,-3.819c-2.089,0 -3.386,1.489 -3.53,3.819l7.083,0Zm-55.344,0c-0.144,-2.33 -1.441,-3.819 -3.553,-3.819c-2.089,0 -3.386,1.489 -3.53,3.819l7.083,0Zm-399.576,0c-0.144,-2.33 -1.441,-3.819 -3.553,-3.819c-2.089,0 -3.386,1.489 -3.53,3.819l7.083,0Zm-17.738,-2.52c2.401,0 3.722,-1.056 3.722,-2.713c0,-1.777 -1.321,-2.57 -3.722,-2.57l-3.361,0l0,5.283l3.361,0Zm380.258,-6.601c0,0.863 0.408,1.27 1.27,1.27c0.863,0 1.271,-0.407 1.271,-1.27c0,-0.863 -0.408,-1.271 -1.271,-1.271c-0.862,0 -1.27,0.408 -1.27,1.271Zm-80.256,0c0,0.863 0.408,1.27 1.27,1.27c0.863,0 1.271,-0.407 1.271,-1.27c0,-0.863 -0.408,-1.271 -1.271,-1.271c-0.862,0 -1.27,0.408 -1.27,1.271Zm-148.536,0c0,0.863 0.408,1.27 1.27,1.27c0.863,0 1.271,-0.407 1.271,-1.27c0,-0.863 -0.408,-1.271 -1.271,-1.271c-0.862,0 -1.27,0.408 -1.27,1.271Zm188.064,0c0,0.863 0.408,1.27 1.27,1.27c0.863,0 1.271,-0.407 1.271,-1.27c0,-0.863 -0.408,-1.271 -1.271,-1.271c-0.862,0 -1.27,0.408 -1.27,1.271Zm-281.376,0c0,0.863 0.408,1.27 1.27,1.27c0.863,0 1.271,-0.407 1.271,-1.27c0,-0.863 -0.408,-1.271 -1.271,-1.271c-0.862,0 -1.27,0.408 -1.27,1.271Z" style="fill:#fff;" />
    <g id="logomark">
        <path id="tl" d="M792.39,49.568l0,32.326l-28.38,0l-0.052,0c-7.826,-0.037 -14.175,-6.554 -14.175,-14.555l0,-10.373l0,-7.397l0,-14.569l28.429,0c7.791,0.043 14.178,6.565 14.178,14.568Z" style="fill:#fadf74;"/>
        <path id="bl" d="M792.39,106.15l0,-5.671l0,-5.074l0,-8.804l-17.266,0l-0.042,0c-4.724,0 -8.583,3.982 -8.583,8.804l0,19.595l17.31,0c4.721,-0.041 8.581,-3.982 8.581,-8.85Z" style="fill:#fadf74;"/>
        <path id="tr" d="M797.39,49.568l0,32.326l28.434,0c7.828,-0.038 14.176,-6.556 14.176,-14.556l0,-10.373l0,-7.397l0,-14.568l-28.345,0l-0.087,0c-7.789,0.043 -14.178,6.565 -14.178,14.568Z" style="fill:#fadf74;"/>
        <path id="br" d="M797.39,106.15c0,4.868 3.86,8.809 8.587,8.85l17.306,0l0,-8.85l0,-4.441l0,-6.304c0,-4.822 -3.855,-8.804 -8.582,-8.804l-0.041,0l-17.27,0l0,19.549Z" style="fill:#fadf74;"/>
    </g>
</svg>
